<svg role="img" viewBox="0 0 24 24" fill="white" xmlns="http://www.w3.org/2000/svg" width="24" height="24">
  <title>GitHub icon</title>
  <path d="M12 0.2975C5.37 0.2975 0 5.6675 0 12.2975C0 17.5775 3.438 22.0975 8.205 23.6975C8.805 23.7975 9.025 23.4475 9.025 23.1475C9.025 22.8775 9.015 22.1775 9.01 21.2475C5.6725 21.8975 4.9675 19.5975 4.9675 19.5975C4.4225 18.1475 3.6325 17.7975 3.6325 17.7975C2.545 17.0475 3.7175 17.0625 3.7175 17.0625C4.9225 17.1475 5.555 18.2975 5.555 18.2975C6.6275 20.0975 8.3725 19.5475 9.05 19.2475C9.15 18.4475 9.4575 17.8975 9.8 17.5975C7.145 17.2975 4.3425 16.2475 4.3425 11.5675C4.3425 10.2475 4.8075 9.1475 5.58 8.2675C5.45 7.9675 5.045 6.7475 5.695 5.0475C5.695 5.0475 6.705 4.7175 9.005 6.2975C9.965 6.0375 10.985 5.9075 12 5.9025C13.015 5.9075 14.035 6.0375 14.995 6.2975C17.285 4.7175 18.29 5.0475 18.29 5.0475C18.945 6.7475 18.54 7.9675 18.405 8.2675C19.18 9.1475 19.64 10.2475 19.64 11.5675C19.64 16.2575 16.83 17.2925 14.17 17.5875C14.6 17.9375 15 18.6475 15 19.7475C15 21.3475 14.985 22.6875 14.985 23.1375C14.985 23.4375 15.2 23.7925 15.81 23.6825C20.565 22.0875 24 17.5775 24 12.2975C24 5.6675 18.63 0.2975 12 0.2975Z"></path>
</svg>
