<svg role="img" viewBox="0 0 24 24" fill="white" xmlns="http://www.w3.org/2000/svg" width="24" height="24">
  <title>LinkedIn icon</title>
  <path d="M20.447 20.452h-3.554v-5.569c0-1.327-.027-3.037-1.852-3.037-1.853 0-2.136 1.445-2.136 2.939v5.667H9.351V9h3.414v1.561h.049c.476-.9 1.637-1.852 3.37-1.852 3.604 0 4.271 2.371 4.271 5.455v6.288zM5.337 7.433a2.065 2.065 0 1 1 0-4.131 2.065 2.065 0 0 1 0 4.131zM6.89 20.452H3.78V9h3.11v11.452zM22.225 0H1.771C.792 0 0 .774 0 1.728v20.543C0 23.225.792 24 1.771 24h20.451C23.2 24 24 23.225 24 22.271V1.728C24 .774 23.2 0 22.225 0z"></path>
</svg>
